<svg width="48" height="48" viewBox="0 0 48 48" fill="none" xmlns="http://www.w3.org/2000/svg">
<path d="M0 8C0 3.58172 3.58172 0 8 0H40C44.4183 0 48 3.58172 48 8V40C48 44.4183 44.4183 48 40 48H8C3.58172 48 0 44.4183 0 40V8Z" fill="#444444"/>
<g clip-path="url(#clip0_4152_5801)">
<path d="M19.2002 21.5999V19.1999C19.2002 16.5489 21.3492 14.3999 24.0002 14.3999C26.6512 14.3999 28.8002 16.5489 28.8002 19.1999" stroke="#26D07C" stroke-width="2" stroke-miterlimit="10"/>
<path d="M15.5996 21.6001V32.4001C15.5996 33.7256 16.6741 34.8001 17.9996 34.8001H29.9996C31.3251 34.8001 32.3996 33.7256 32.3996 32.4001V21.6001H15.5996ZM25.1996 28.4672V31.2001H22.7996V28.4672C22.0853 28.0515 21.5996 27.2862 21.5996 26.4001C21.5996 25.0746 22.6741 24.0001 23.9996 24.0001C25.3251 24.0001 26.3996 25.0746 26.3996 26.4001C26.3996 27.2862 25.9139 28.0515 25.1996 28.4672Z" fill="#26D07C"/>
</g>
<defs>
<clipPath id="clip0_4152_5801">
<rect width="24" height="24" fill="white" transform="translate(12 12)"/>
</clipPath>
</defs>
</svg>
