<svg width="48" height="48" viewBox="0 0 48 48" fill="none" xmlns="http://www.w3.org/2000/svg">
<path d="M0 8C0 3.58172 3.58172 0 8 0H40C44.4183 0 48 3.58172 48 8V40C48 44.4183 44.4183 48 40 48H8C3.58172 48 0 44.4183 0 40V8Z" fill="#383838"/>
<g clip-path="url(#clip0_4152_5767)">
<path d="M34.5678 25.9502C33.7501 25.1251 32.6693 24.6227 31.5222 24.5165C32.5125 23.6256 33.1373 22.3394 33.1373 20.9026C33.1373 18.2146 30.9591 16.0364 28.2706 16.0364C25.7028 16.0364 23.6004 18.0253 23.418 20.546C25.7023 21.5342 27.3054 23.8107 27.3054 26.4537C27.3054 27.4189 27.0858 28.3621 26.6774 29.218C27.2656 29.5255 27.8078 29.9228 28.2805 30.3997C29.4925 31.62 30.1811 33.3073 30.168 35.0274L30.167 35.0625L30.1659 35.0923L30.123 35.9064H35.9523L36.0004 29.4596C36.0104 28.1446 35.4953 26.8835 34.5678 25.9502Z" fill="#26D07C"/>
<path d="M24.1217 30.0686C25.1115 29.1782 25.7384 27.8914 25.7384 26.4546C25.7384 23.7661 23.5591 21.5874 20.8711 21.5874C18.1826 21.5874 16.0039 23.7661 16.0039 26.4546C16.0039 27.8888 16.6282 29.1745 17.6164 30.0655C15.0858 30.2615 13.0869 32.3571 13.0686 34.9374L13.0205 35.9063H20.4204H28.5524L28.6005 35.0101C28.6099 33.6956 28.0944 32.4345 27.1673 31.5012C26.3486 30.6756 25.2683 30.1747 24.1217 30.0686Z" fill="#26D07C"/>
<path d="M15.1392 17.9468V19.7549C15.1392 20.5036 15.7478 21.1117 16.4971 21.1117C17.2474 21.1117 17.8549 20.5036 17.8549 19.7549V17.9468H19.6608C20.4101 17.9468 21.0182 17.3382 21.0182 16.589C21.0182 15.8403 20.4101 15.2317 19.6608 15.2317H17.8549V13.4503C17.8549 12.7011 17.2474 12.0935 16.4971 12.0935C15.7478 12.0935 15.1392 12.7011 15.1392 13.4503V15.2311H13.3573C12.607 15.2311 12 15.8397 12 16.5885C12 17.3377 12.607 17.9463 13.3573 17.9463L15.1392 17.9468Z" fill="#26D07C"/>
</g>
<defs>
<clipPath id="clip0_4152_5767">
<rect width="24" height="24" fill="white" transform="translate(12 12)"/>
</clipPath>
</defs>
</svg>
