<svg width="48" height="48" viewBox="0 0 48 48" fill="none" xmlns="http://www.w3.org/2000/svg">
<path d="M0 8C0 3.58172 3.58172 0 8 0H40C44.4183 0 48 3.58172 48 8V40C48 44.4183 44.4183 48 40 48H8C3.58172 48 0 44.4183 0 40V8Z" fill="#444444"/>
<g clip-path="url(#clip0_4152_5779)">
<path d="M35.2969 26.1562H34.1648C33.7134 24.878 32.8692 23.7919 31.7344 23.0316V19.8281C31.7344 19.44 31.4194 19.125 31.0312 19.125C29.1323 19.125 27.4106 20.2369 26.602 21.9375H21.1875C17.9711 21.9375 15.3078 24.3495 14.9105 27.4594C14.0488 27.1817 13.4062 26.3753 13.4062 25.4531C13.4062 25.0648 13.0914 24.75 12.7031 24.75C12.3148 24.75 12 25.0648 12 25.4531C12 26.3924 12.376 27.2773 13.0588 27.9447C13.5709 28.4453 14.2059 28.7749 14.8921 28.9054C14.8921 28.9056 14.8921 28.9058 14.8921 28.9059C15.0834 30.7791 16.1081 32.4502 17.6718 33.4997V35.2969C17.6718 35.685 17.9868 36 18.375 36H22.5937C22.9818 36 23.2968 35.685 23.2968 35.2969V34.5938H26.1093V35.2969C26.1093 35.685 26.4243 36 26.8125 36H31.0312C31.4193 36 31.7343 35.685 31.7343 35.2969V33.5105C32.4103 33.0511 32.9948 32.4628 33.4523 31.7812H35.2969C35.685 31.7812 36 31.4663 36 31.0781V26.8594C36 26.4713 35.685 26.1562 35.2969 26.1562ZM31.0312 27.5625C30.6431 27.5625 30.3281 27.2475 30.3281 26.8594C30.3281 26.4713 30.6431 26.1562 31.0312 26.1562C31.4194 26.1562 31.7344 26.4713 31.7344 26.8594C31.7344 27.2475 31.4194 27.5625 31.0312 27.5625Z" fill="#26D07C"/>
<path d="M22.5933 17.7188C20.7961 17.7188 19.3097 19.0744 19.1025 20.8167C19.7658 20.6306 20.4652 20.5312 21.1871 20.5312H25.7883C25.8483 20.4422 25.9102 20.355 25.9744 20.2692C25.5539 18.7988 24.1969 17.7188 22.5933 17.7188Z" fill="#26D07C"/>
<path d="M22.5938 16.2188C22.9821 16.2188 23.2969 15.9039 23.2969 15.5156V14.1094C23.2969 13.7211 22.9821 13.4062 22.5938 13.4062C22.2054 13.4062 21.8906 13.7211 21.8906 14.1094V15.5156C21.8906 15.9039 22.2054 16.2188 22.5938 16.2188Z" fill="#26D07C"/>
<path d="M19.7812 14.8125C20.1696 14.8125 20.4844 14.4977 20.4844 14.1094V12.7031C20.4844 12.3148 20.1696 12 19.7812 12C19.3929 12 19.0781 12.3148 19.0781 12.7031V14.1094C19.0781 14.4977 19.3929 14.8125 19.7812 14.8125Z" fill="#26D07C"/>
<path d="M25.4062 14.8125C25.7946 14.8125 26.1094 14.4977 26.1094 14.1094V12.7031C26.1094 12.3148 25.7946 12 25.4062 12C25.0179 12 24.7031 12.3148 24.7031 12.7031V14.1094C24.7031 14.4977 25.0179 14.8125 25.4062 14.8125Z" fill="#26D07C"/>
</g>
<defs>
<clipPath id="clip0_4152_5779">
<rect width="24" height="24" fill="white" transform="translate(12 12)"/>
</clipPath>
</defs>
</svg>
