<svg width="48" height="48" viewBox="0 0 48 48" fill="none" xmlns="http://www.w3.org/2000/svg">
<path d="M0 8C0 3.58172 3.58172 0 8 0H40C44.4183 0 48 3.58172 48 8V40C48 44.4183 44.4183 48 40 48H8C3.58172 48 0 44.4183 0 40V8Z" fill="#444444"/>
<g clip-path="url(#clip0_4152_5793)">
<path d="M35.937 21.19C35.779 20.704 35.348 20.36 34.84 20.314L27.912 19.685L25.174 13.275C24.972 12.804 24.512 12.5 24 12.5C23.488 12.5 23.028 12.804 22.827 13.275L20.089 19.685L13.16 20.314C12.652 20.361 12.222 20.705 12.063 21.19C11.905 21.676 12.051 22.209 12.435 22.546L17.672 27.138L16.128 33.939C16.015 34.439 16.209 34.956 16.624 35.256C16.847 35.418 17.109 35.499 17.372 35.499C17.598 35.499 17.824 35.439 18.026 35.318L24 31.746L29.973 35.318C30.411 35.58 30.962 35.556 31.376 35.256C31.791 34.956 31.985 34.439 31.872 33.939L30.328 27.138L35.565 22.546C35.949 22.209 36.095 21.677 35.937 21.19Z" fill="#26D07C"/>
</g>
<defs>
<clipPath id="clip0_4152_5793">
<rect width="24" height="24" fill="white" transform="translate(12 12)"/>
</clipPath>
</defs>
</svg>
