<svg width="48" height="48" viewBox="0 0 48 48" fill="none" xmlns="http://www.w3.org/2000/svg">
<path d="M0 8C0 3.58172 3.58172 0 8 0H40C44.4183 0 48 3.58172 48 8V40C48 44.4183 44.4183 48 40 48H8C3.58172 48 0 44.4183 0 40V8Z" fill="#444444"/>
<g clip-path="url(#clip0_4152_5814)">
<path fill-rule="evenodd" clip-rule="evenodd" d="M24 12C30.6274 12 36 17.3726 36 24C36 30.6273 30.6274 35.9999 24 35.9999C17.3726 35.9999 12 30.6273 12 24C12 17.3726 17.3726 12 24 12ZM23.05 30.5562V31.3301C23.05 31.8547 23.4754 32.2801 24 32.2801C24.5247 32.2801 24.9501 31.8547 24.9501 31.33V30.5737C25.7964 30.4477 26.6625 30.142 27.3448 29.6243C29.3783 28.0813 28.9568 25.1768 26.8562 23.9085C26.0493 23.4213 25.0853 23.1742 24.1631 23.0227C23.148 22.856 21.6779 22.4832 21.6171 21.2306C21.5989 20.8562 21.6952 20.5022 21.9128 20.1959C22.2538 19.716 22.8394 19.4303 23.4041 19.3166C23.8531 19.2261 24.3474 19.2371 24.7899 19.3493C25.5952 19.5535 26.2125 20.0812 26.5345 20.8485C26.7375 21.3321 27.2941 21.5598 27.7777 21.3569C28.2613 21.154 28.4891 20.5972 28.2861 20.1136C27.7272 18.7823 26.6478 17.8626 25.2511 17.5085C25.1515 17.4832 25.0511 17.4613 24.9501 17.4426V16.67C24.9501 16.1454 24.5247 15.72 24 15.72C23.4754 15.72 23.05 16.1453 23.05 16.67V17.4565C22.016 17.6599 21.0299 18.198 20.3957 19.0538C19.9045 19.7167 19.6837 20.4982 19.7236 21.3202C19.8359 23.6323 21.8507 24.5642 23.8582 24.8938C24.5311 25.0043 25.2896 25.18 25.8761 25.5342C26.8185 26.1032 27.1553 27.3924 26.2009 28.1166C25.7452 28.4624 25.1216 28.6429 24.5586 28.7112C23.7304 28.8117 22.8607 28.69 22.153 28.2187C21.6757 27.9009 21.3435 27.4495 21.2046 26.8892C21.0786 26.3813 20.5659 26.0702 20.0575 26.1952C19.5491 26.3203 19.2371 26.8343 19.3634 27.3427C19.6193 28.3731 20.226 29.214 21.1054 29.7997C21.6891 30.1884 22.3603 30.437 23.05 30.5562Z" fill="#26D07C"/>
</g>
<defs>
<clipPath id="clip0_4152_5814">
<rect width="24" height="24" fill="white" transform="translate(12 12)"/>
</clipPath>
</defs>
</svg>
