<svg width="48" height="48" viewBox="0 0 48 48" fill="none" xmlns="http://www.w3.org/2000/svg">
<path d="M0 8C0 3.58172 3.58172 0 8 0H40C44.4183 0 48 3.58172 48 8V40C48 44.4183 44.4183 48 40 48H8C3.58172 48 0 44.4183 0 40V8Z" fill="#444444"/>
<g clip-path="url(#clip0_4152_5822)">
<path d="M22.6353 22.4119C23.4219 21.5363 24.5402 20.9461 25.735 20.9747C26.9772 20.9344 27.999 21.5789 28.8915 22.3706C29.7952 21.2742 30.3379 19.8708 30.3379 18.3431C30.3379 14.8472 27.4956 12.0028 24.0003 12H23.9951C20.498 12 17.6523 14.8453 17.6523 18.3431C17.6523 19.8919 18.2106 21.3136 19.1363 22.4161L22.6353 22.4119ZM21.4663 17.2791C21.7405 17.0044 22.1858 17.0044 22.4605 17.2791L23.3923 18.2109L25.54 16.0631C25.8147 15.7884 26.26 15.7884 26.5342 16.0631C26.8089 16.3378 26.8089 16.7831 26.5342 17.0573L24.0003 19.5919C23.8458 19.7711 23.6274 19.9182 23.3924 19.9083C23.2124 19.9083 23.0324 19.8398 22.8955 19.7025L21.4664 18.2733C21.1917 17.9986 21.1917 17.5533 21.4663 17.2791Z" fill="#26D07C"/>
<path d="M28.5074 29.6633C28.5069 29.6633 26.0078 27.1887 26.0078 27.1887C25.9168 27.0985 25.7702 27.0988 25.6798 27.1895C25.36 27.5101 24.6826 28.1894 24.6812 28.1905C23.725 29.0521 22.6554 29.5072 21.5872 29.5072C20.9932 29.5201 20.3445 29.3509 19.8013 29.0549C18.9609 28.6086 18.5259 27.6486 18.742 26.7186C18.8809 26.0797 19.2686 25.7317 19.7423 25.2636C20.1421 24.861 20.6591 24.3406 21.1794 23.8208L12.6905 23.8344C12.3024 23.8349 12.0008 24.1503 12.0013 24.5389L12 30.2136C12.0005 30.6017 12.3159 30.9158 12.7045 30.9153L15.923 30.9092L20.6736 35.6441C21.1451 36.1142 21.9054 36.118 22.3821 35.6581C22.8676 35.1889 22.8615 34.4005 22.3961 33.9149L23.3655 34.8805C23.829 35.3478 24.6132 35.3605 25.0908 34.8772C25.5666 34.3996 25.5652 33.6271 25.0875 33.1517C25.5656 33.6322 26.3531 33.6172 26.8134 33.148C27.2807 32.6849 27.2924 31.8992 26.8101 31.4221C27.273 31.8874 28.0238 31.8893 28.49 31.4624C28.6286 31.342 28.7308 31.1937 28.7966 31.0283C28.9868 30.5658 28.8748 30.0076 28.5074 29.6633Z" fill="#26D07C"/>
<path d="M35.2603 23.909L29.4415 23.9202C28.7488 23.9217 28.0841 23.6484 27.5938 23.1595C26.5987 22.1563 24.9408 22.117 23.9452 23.0788C23.0294 23.9381 20.9355 26.0601 20.299 26.6985C20.2025 26.796 20.1406 26.9127 20.1125 27.0356C20.0431 27.3309 20.1682 27.6576 20.4612 27.8132C21.5829 28.4085 22.7598 28.0293 23.7404 27.1457L24.7777 26.1009C25.313 25.495 26.2557 25.4515 26.8312 26.0249L29.4767 28.6448C30.5847 29.6385 30.5524 31.5985 29.3946 32.5401C29.2128 32.6976 29.0126 32.8284 28.7989 32.9301L30.2412 32.9277C32.1067 32.924 32.5052 31.1315 32.5052 31.1315L35.2744 31.1254C35.6625 31.1249 36.0009 30.8095 36.0005 30.4209V24.6107C35.9995 24.2226 35.6484 23.9085 35.2603 23.909Z" fill="#26D07C"/>
</g>
<defs>
<clipPath id="clip0_4152_5822">
<rect width="24" height="24" fill="white" transform="translate(12 12)"/>
</clipPath>
</defs>
</svg>
