<?xml version="1.0" encoding="UTF-8"?>
<svg id="Layer_1" width="70" height="70" data-name="Layer 1" xmlns="http://www.w3.org/2000/svg" version="1.1" viewBox="0 0 950 500">
  <defs>
    <style>
      .cls-1 {
        fill: #fff;
        stroke-width: 0px;
      }
    </style>
  </defs>
  <polygon class="cls-1" points="18.3 54.7 41 16 109.3 16 109.3 350.6 72.9 350.6 72.9 54.7 18.3 54.7"/>
  <polygon class="cls-1" points="252.7 54.7 275.5 16 343.8 16 343.8 350.6 307.4 350.6 307.4 54.7 252.7 54.7"/>
  <polygon class="cls-1" points="596.5 54.7 619.2 16 687.5 16 687.5 350.6 651.1 350.6 651.1 54.7 596.5 54.7"/>
  <polygon class="cls-1" points="830.9 54.7 853.7 16 922 16 922 350.6 885.6 350.6 885.6 54.7 830.9 54.7"/>
  <circle class="cls-1" cx="498.6" cy="127.5" r="29.6"/>
  <circle class="cls-1" cx="498.6" cy="325.6" r="29.6"/>
  <g>
    <path class="cls-1" d="M73.2,373.7h50v9.8h-40v31.3h40v9.8h-40v49h-10v-99.7Z"/>
    <path class="cls-1" d="M205.4,373.7h10v99.7h-10v-99.7Z"/>
    <path class="cls-1" d="M294.5,383.4v-9.8h54.6v9.8h-22.2v90h-10.2v-90h-22.2Z"/>
    <path class="cls-1" d="M429.8,473.4v-99.7h2.2l66.4,76.5v-76.5h9.8v99.7h-2.2l-65.8-75.5v75.5h-10.3Z"/>
    <path class="cls-1" d="M598.7,373.7h57.2v9.8h-47.2v31.3h46.8v9.8h-46.8v39.2h46.8v9.8h-56.8v-99.7Z"/>
    <path class="cls-1" d="M729,454.8l8.5-5.1c6,11,12.9,16.5,20.7,16.5s6.5-.8,9.4-2.3c2.9-1.6,5.2-3.6,6.7-6.3,1.5-2.6,2.3-5.4,2.3-8.3s-1.1-6.6-3.4-9.8c-3.1-4.4-8.8-9.8-17.1-16-8.3-6.3-13.5-10.8-15.5-13.6-3.5-4.7-5.3-9.8-5.3-15.3s1-8.3,3.1-11.9c2.1-3.6,5-6.4,8.8-8.4,3.8-2.1,7.9-3.1,12.3-3.1s9.1,1.2,13.2,3.5c4.1,2.3,8.4,6.6,13,12.8l-8.1,6.2c-3.8-5-6.9-8.2-9.6-9.8-2.6-1.6-5.5-2.4-8.6-2.4s-7.3,1.2-9.9,3.7c-2.6,2.4-3.8,5.4-3.8,9s.5,4.3,1.4,6.3c.9,2,2.6,4.2,5,6.6,1.3,1.3,5.6,4.6,12.9,10,8.6,6.4,14.6,12,17.8,17,3.2,5,4.8,10,4.8,15,0,7.2-2.7,13.5-8.2,18.8-5.5,5.3-12.2,8-20,8s-11.5-1.6-16.5-4.8c-4.9-3.2-9.5-8.6-13.6-16.2Z"/>
    <path class="cls-1" d="M864.4,454.8l8.5-5.1c6,11,12.9,16.5,20.7,16.5s6.5-.8,9.4-2.3c2.9-1.6,5.2-3.6,6.7-6.3,1.5-2.6,2.3-5.4,2.3-8.3s-1.1-6.6-3.4-9.8c-3.1-4.4-8.8-9.8-17.1-16-8.3-6.3-13.5-10.8-15.5-13.6-3.5-4.7-5.3-9.8-5.3-15.3s1-8.3,3.1-11.9c2.1-3.6,5-6.4,8.8-8.4,3.8-2.1,7.9-3.1,12.3-3.1s9.1,1.2,13.2,3.5c4.1,2.3,8.4,6.6,13,12.8l-8.1,6.2c-3.8-5-6.9-8.2-9.6-9.8-2.6-1.6-5.5-2.4-8.6-2.4s-7.3,1.2-9.9,3.7c-2.6,2.4-3.8,5.4-3.8,9s.5,4.3,1.4,6.3c.9,2,2.6,4.2,5,6.6,1.3,1.3,5.6,4.6,12.9,10,8.6,6.4,14.6,12,17.8,17,3.2,5,4.8,10,4.8,15,0,7.2-2.7,13.5-8.2,18.8-5.5,5.3-12.2,8-20,8s-11.5-1.6-16.5-4.8c-4.9-3.2-9.5-8.6-13.6-16.2Z"/>
  </g>
</svg>
