<svg xmlns="http://www.w3.org/2000/svg" width="254" height="133"><g fill="#FFF" fill-rule="nonzero"><path d="M184.76 23.75a41.48 41.48 0 0 0-19.29 4.74 18 18 0 0 1 1.53 7.26v5.89c12.839-9.555 30.936-7.242 40.958 5.237 10.021 12.478 8.375 30.649-3.726 41.123-12.1 10.474-30.32 9.497-41.232-2.21a53.51 53.51 0 0 1-6 10.87c16.593 14.824 41.906 13.991 57.49-1.89V125a6 6 0 0 0 12 0V65.49c-.033-23.035-18.695-41.701-41.73-41.74ZM41.75 23.75A41.58 41.58 0 0 0 12 36.23V6a6 6 0 0 0-6-6 6 6 0 0 0-6 6v59.5c0 23.058 18.692 41.75 41.75 41.75S83.5 88.558 83.5 65.5 64.808 23.75 41.75 23.75Zm0 71.5C25.32 95.25 12 81.93 12 65.5s13.32-29.75 29.75-29.75S71.5 49.07 71.5 65.5c-.017 16.424-13.326 29.733-29.75 29.75ZM149 29.75a6 6 0 0 0-6 6V65.5a29.74 29.74 0 0 1-51.48 20.29 54 54 0 0 1-6 10.87A41.72 41.72 0 0 0 155 65.5V35.75a6 6 0 0 0-6-6ZM246 118.12a6.88 6.88 0 1 1-6.88 6.88 6.89 6.89 0 0 1 6.88-6.88m0-.63a7.51 7.51 0 1 0 0 15.02 7.51 7.51 0 0 0 0-15.02Z"/><path d="M245.61 122.54a.28.28 0 0 0-.25.14l-1.85 2.76-1.83-2.76a.29.29 0 0 0-.12-.1.27.27 0 0 0-.14 0 .28.28 0 0 0-.22.09.33.33 0 0 0-.09.22v4.57a.32.32 0 0 0 .08.21.25.25 0 0 0 .2.09.26.26 0 0 0 .21-.09.32.32 0 0 0 .08-.21v-3.74l1.57 2.42a.31.31 0 0 0 .11.08.22.22 0 0 0 .13 0 .2.2 0 0 0 .13 0l.11-.08 1.56-2.38v3.7a.32.32 0 0 0 .08.21.32.32 0 0 0 .23.09.31.31 0 0 0 .31-.3v-4.57a.28.28 0 0 0-.09-.22.4.4 0 0 0-.21-.13ZM249.51 125.13l1.59-2.13a.34.34 0 0 0 .07-.19.23.23 0 0 0-.09-.18.27.27 0 0 0-.43.06l-1.48 2-1.5-2a.29.29 0 0 0-.24-.12.34.34 0 0 0-.21.08.29.29 0 0 0-.09.21.28.28 0 0 0 .06.18l1.59 2.14-1.58 2.15a.34.34 0 0 0-.08.2.25.25 0 0 0 .08.17.25.25 0 0 0 .2.09.25.25 0 0 0 .23-.13l1.49-2 1.5 2a.27.27 0 0 0 .24.13.32.32 0 0 0 .2-.08.27.27 0 0 0 .1-.22.32.32 0 0 0-.06-.18l-1.59-2.18Z"/></g></svg>