<svg xml:space="preserve" width="5749.333" height="1969.333" xmlns="http://www.w3.org/2000/svg"><path d="M10890.3 4357.13c56.4 51.32 106.9 94.75 154.5 141.21 78.5 76.69 154.1 156.27 232.6 232.96 138.5 135.33 278.3 269.14 417.2 404.1 108.8 105.76 216.7 212.31 325.2 318.34 170.4 166.74 341.2 333.11 511.5 500.02 98.6 96.81 196.1 194.86 294.7 291.62 117.9 115.67 236.6 230.53 354.8 345.87 109.7 107.12 219.3 214.44 328.9 321.73 165.6 162.06 331.5 323.8 496.5 486.5 75.8 74.67 148.6 152.32 225.5 225.83 15.9 15.32 43.6 25.94 65.8 26 654 1.34 1307.8 1.07 1961.7 1.03 11.3 0 22.5-1.19 40.8-2.19-30.3-35.86-55.1-68.16-83-97.54-85.1-89.67-172.1-177.53-257.1-267.36-153.6-162.26-306.3-325.34-459.3-488.24-99.3-105.66-198.4-211.57-297.7-317.29-152.9-162.84-306-325.47-458.9-488.41-95.8-102.01-191.1-204.62-287-306.57-160-170.04-320.3-339.69-480.4-509.61-98.3-104.35-196.3-208.97-294.5-313.37-154.3-163.95-308.8-327.78-463.1-491.74-98.4-104.45-196.5-209.13-294.8-313.63-153.2-162.81-306.6-325.49-459.7-488.35-98.3-104.47-196.2-209.29-294.5-313.75-157.7-167.65-315.7-334.99-473.3-502.65-98.2-104.43-196.5-208.76-294.1-313.85-109.8-118.25-218.2-237.92-329.2-355.15-11-11.66-35.7-14.52-54.1-14.52-422.5-.8-845-.63-1267.55-.63h-509.18c-32.67 163.73-64.99 323.76-96.3 483.91-42.59 218.12-84.42 436.35-126.54 654.58-85.76 444.51-171.39 889.08-257.41 1333.57-47.34 244.35-95.34 488.51-143.14 732.7-41.4 211.57-84.26 422.84-123.22 634.85-7.24 39.21-23.22 46.86-59.01 46.7-581.77-2.28-1163.55-2.91-1745.35-4.88-876.84-2.97-1753.68-10.15-2630.51-7.88-241.87.67-480.29-6.3-704.31-102.94-164.35-70.93-324.03-154.46-459.34-296.06 1261.33-6.65 2514.78-13.27 3776.06-19.87-10.68-26.83-16.79-47.1-26.41-65.59-131.85-253.09-264.87-505.65-396.2-759.03a39725.523 39725.523 0 0 1-269.75-530.74c-17.8-35.83-38.53-49.55-80.08-49.5-1208.86 1.29-2417.74 1.05-3626.59 1.05h-64.84c-25.83-94.41-27.09-185.71 6.46-270.86 42.53-107.99 127.64-176.93 244.03-189.14 107.88-11.31 217.22-10.17 325.97-11.04 1024.29-8.59 2048.62-16.13 3072.93-24.64 544.82-4.53 1089.68-10.35 1634.49-15.56 14.74-.12 29.42-.02 51.62-.02-41.16-87.06-78.59-168.45-117.84-248.94-95.78-196.61-192.75-392.62-288.55-589.22-109.63-224.96-218.26-450.45-328.5-675.05-5.68-11.62-21.47-20.77-34.59-25.47-11.86-4.27-26.5-.93-39.93-.93-1641.49 0-3283 1.36-4924.5-2.04-170.4-.36-334.71 17.66-496.59 66.97-86.24 26.3-175.57 45.42-257.95 80.71-121.994 52.3-243.433 108.65-357.024 176.76-141.697 84.98-267.922 193.51-372.416 322.01-170.097 209.13-268.88 450.67-307.165 717.78-42.941 299.64-13.222 594.49 53.377 887.11 63.937 280.88 161.537 550.08 282.081 811.58 79.883 173.35 167.599 341.82 279.664 496.69 77.218 106.65 152.174 215.37 236.271 316.45 94.771 113.94 194.012 224.96 299.792 328.65 111.5 109.32 231.13 210.6 350.55 311.47 152.87 129.09 317.79 241.32 494.05 336.56 97.84 52.84 193.74 109.76 293.74 158.2 120.91 58.58 243.3 115.09 368.53 163.52 154.74 59.83 313.63 108.84 469.69 165.34 236.56 85.7 485.03 116.7 729.69 166.42 361.47 73.5 726.41 79.74 1092.88 79.58 1750.38-.67 3500.84.57 5251.21 1.13 86.6 0 71.2 5.81 84.6-68.36 57.7-317.29 116.1-634.42 173.4-951.84 82-453.82 163-907.92 244.8-1361.86 54.3-300.82 109.2-601.51 165.9-913.19" style="fill:#231f20;fill-opacity:1;fill-rule:evenodd;stroke:none" transform="matrix(.25604 0 0 -.25604 0 1969.333)"/><path d="M12783.8 2656v-2.57c94.9 0 189.9.37 284.8-.08 222.6-1.07 446-18.26 663.9 51.51 110.4 35.35 222.1 62.8 319.7 131.68 79.2 55.94 150.3 119.6 210.5 193.82 122.4 150.56 211.1 320.68 279.9 501.92 57.8 152.26 102.6 307.6 132.2 467.87 27.5 149.1-98.6 296.21-241.1 296.59-152 .39-304.1 8.8-456.2 10.33-306.4 2.98-613.1 9.86-919.4 2.71-152.7-3.59-304.2-32.47-443.7-108.19-98.9-53.63-182-124.24-258.8-203.55-37.7-38.94-70.9-83.02-101.8-127.85-115.4-167.56-204.8-348.92-267.9-541.87-39.8-121.76-74.7-246.14-98.4-371.86-29.1-154.69 98.8-286.86 246.6-288.71 216.6-2.68 433.2-7.72 649.7-11.75zm-141.7-1204.98c-202 11.1-471.5 25.66-741 40.85-80 4.54-160.8 6.06-240 17.4-196.4 28.23-395.7 44.33-583.9 112.56-85.9 31.12-170.4 68.62-250.5 112.43-109.6 59.88-208.1 137.45-290.4 231.67-137.4 157.16-216.9 341.26-247.4 548.28-25.6 173.89-1.3 344.35 26 514.75 38.7 241.92 108 475.36 217.8 694.63 60.5 120.94 129.3 238.12 200 353.52 79.2 129.37 173.3 248.37 279.7 356.86 75.3 76.81 148.7 156.15 229.7 226.61 98.3 85.47 202.3 164.63 306.5 243.03 56.8 42.67 117.8 80.18 179 116.31 70.6 41.62 142.6 81.2 215.8 117.95 82.9 41.58 166.5 82.47 252.3 117.41 106 43.09 215.4 77.76 321.9 119.63 153 60.15 314.8 84.11 473.8 119.83 373.7 83.96 753.3 95.04 1133.6 85.85 216.2-5.26 432.2-25.13 648-40.3 113.9-7.97 229.3-11.07 340.9-32.35 151.6-28.84 302-67.48 449.5-112.84 78.6-24.16 153.3-65.96 224-109.24 144.9-88.76 269.3-202.24 356.9-349.28 124.9-209.7 172.6-437.91 150.2-681.27-20.1-218.16-58.4-432.83-128.8-640.33-35.8-105.3-80-208.09-126-309.48-77.8-171.61-175.1-332.19-292.3-479.94-62.4-78.6-126.3-156.19-192.8-231.36-118.9-134.52-252-253.71-394.8-362.89-112.6-86.02-226-169.59-352.2-234.84-75-38.78-147.8-81.66-223.5-118.83-78.9-38.75-158.5-76.66-240.5-108.12-115.8-44.44-234.5-81.3-351.2-123.72-178.6-64.98-366.5-86.95-551.1-125.04-241.7-49.9-486.5-53.87-799.2-69.74" style="fill:#231f20;fill-opacity:1;fill-rule:evenodd;stroke:none" transform="matrix(.35272 0 0 -.35272 0 1969.333)"/><path d="M14055.3 2121.25 13487.8 2.754h569.2l211.6 790.898h1106.5L15163.3 2.754h569L16300 2121.25h-569.2l-220-822.35h-1106.7l220.3 822.35h-569.1" style="fill:#231f20;fill-opacity:1;fill-rule:evenodd;stroke:none" transform="matrix(.17039 0 0 -.17039 0 1969.333)"/><path d="m16300 1842.23-117.7-439.34h-1265.5l-73.7-274.84h991.1l-117.8-438.792h-991.1l-66-247.309H15925L15807.2 2.392h-1759.8l492.8 1839.838H16300" style="fill:#231f20;fill-opacity:1;fill-rule:evenodd;stroke:none" transform="matrix(.1962 0 0 -.1962 0 1969.333)"/><path d="m16193.4 2.165 106.6 397.789h-1145.5l339.6 1267.226h-447.2L14600.8 2.165h1592.6" style="fill:#231f20;fill-opacity:1;fill-rule:evenodd;stroke:none" transform="matrix(.2168 0 0 -.2168 0 1969.333)"/><path d="m15210.8 294.061 551.1 560.868-228.5-853.071h383.8L16300 1430.84h-383.8l-695-731.565-303 731.565h-383.8L14151.6 1.858h383.9l228.5 853.071 250.5-560.868h196.3" style="fill:#231f20;fill-opacity:1;fill-rule:evenodd;stroke:none" transform="matrix(.2526 0 0 -.2526 0 1969.333)"/><path d="m16300 1298.2-83-309.599h-891.9l-51.8-193.677h698.5l-83.1-309.211h-698.4l-46.5-174.276h891.9l-83-309.751h-1240.1l347.3 1296.514H16300" style="fill:#231f20;fill-opacity:1;fill-rule:evenodd;stroke:none" transform="matrix(.27841 0 0 -.27841 0 1969.333)"/><path d="m15521.3 1.54 241.6 901.619h461.2L16300 1186h-1239.1l-75.8-282.841h459.6l-241.6-901.62h318.2" style="fill:#231f20;fill-opacity:1;fill-rule:evenodd;stroke:none" transform="matrix(.30475 0 0 -.30475 0 1969.333)"/><path d="M15627.2 251.885c220.9 0 251.6 50.854 261.9 89.594 19.5 72.656-42.5 83.495-220.5 88.061-156.4 4.634-496.3 15.358-415.6 316.536l5.3 20.056c47.7 177.846 204.2 335.418 596.6 335.418h55.5c140.6 0 271.6-18.63 389.6-51.07l-68.2-254.886c-140.4 35.443-281.3 57.234-432.8 57.234-223.9 0-253.1-51.045-262.6-86.696-19.9-74.072 45.2-84.914 218.5-89.482 146-2.974 498.4-13.812 416.8-318.221l-5.3-20.038c-47.3-176.19-203.7-333.742-597.7-333.742h-55.7c-162.2 0-311.6 18.62-450.1 49.387l69.6 259.541c156.9-36.956 337.1-61.692 494.7-61.692" style="fill:#231f20;fill-opacity:1;fill-rule:evenodd;stroke:none" transform="matrix(.32724 0 0 -.32724 0 1969.333)"/></svg>