<svg id="Layer_1" data-name="Layer 1" xmlns="http://www.w3.org/2000/svg" version="1.1" viewBox="0 0 500 200"><defs><style>.cls-1{fill:#fff;stroke-width:0}</style></defs><path class="cls-1" d="M75.5 185.6c-13.9-3.3-25.8-10.1-36.6-19.5-13.7-11.9-22.8-26.5-27-43.9C5 93.7 9.8 67 27.7 43.7c14-18.2 32.7-30 55.9-33.1 10.9-1.4 21.9-1.2 33-1.8-11.5-4.1-23-2-35.8-1 1-1.2 1.6-2.6 2.5-2.9 10.2-3.3 20.5-4.7 31.4-3.7 9.8 1 19.3 2.3 28.5 5.8 34.6 13 55.6 37.7 63.1 73.7 6.3 30.2-.5 57.7-19.7 81.4-15.5 19.2-35.6 31.9-60.7 35.4-15.5 2.2-30.8 2-45.7-3.4-.4-.2-.8-.6-1-2.1 2.9.2 5.7.5 8.6.5 7.4 0 14.9-.3 23.2-.3 4.9 0 9.2.9 12.8-.3 9.5-3.4 18.8-7.4 27.9-11.9 11.8-5.9 21.2-14.9 27.4-26.5 4.8-9 8-18.9 11.9-28.4 1.4-3.3 2.2-7.4 4.6-9.7 4.3-4.1 4.6-8.6 3.6-13.6-.8-4.3-1.5-8.8-3.1-12.8-1.1-2.8-3.5-5.1-5.7-7.8-5.8-17.7-16.7-31.2-31.3-41.7-13.4-9.7-28.5-15-45.3-15.7-19.7-.9-37.5 5.3-54.3 14.5-12.6 6.9-22.6 16.8-27.3 30.8-2.6 7.8-5.1 15.9-5.8 24-1.1 12-2 24.2 2.9 36.1.4.5.7.7 1 1.4-.4 8.3 3.9 14.6 5.9 21.7 2.9-1.5 4.6-2.4 6.6-3.1 1.2 1.2 2.1 2.2 3.1 3.5 1.1 4.5 3 7.2 8.1 5.2.6.3.8.6.9 1.3 1.2.9 2.2 1.4 3.5 2 .6.3.8.6.9 1.3 1.2.9 2.2 1.4 3.6 2.1.8.5 1.3.9 2 1.4.5.4.7.6 1.3.8.8.5 1.3.9 1.8 1.5v1.1c3 2 5.9 3.6 9.1 5.1.3 0 .8 0 1 .4 1 1 1.8 1.9 2.8 2.2 19.7 6.5 39.5 7.9 59.6 1.9 2.4-.7 4.9-1.2 7.3-1.8.2.6.3 1.2.5 1.9-8.8 4.6-17.8 9.9-28 9.6-12.8-.4-25.5-2.8-38.3-4.1-2-.2-4.2.8-6.3 1.2ZM286 37.1h11.9v13.3h-34.8v43h27.1v13.5h-27.1v52.8h-14.2V37.1h37.2ZM446.6 121.2V85.8c0-8.5 2.5-16.2 10.6-20 8.6-4 17.9-3.7 25.9 1.8 5.9 4 7.7 10.9 7.8 17.7.3 17.7.6 35.4 0 53.1-.5 12.5-5.1 19.4-15.9 21.4-14.7 2.7-24.7-2.8-27.5-15.5-1.6-7.2-.6-15-.7-23.1m16.6-46.1c-1.9 3.2-5.4 6.3-5.5 9.5-.5 18.1-.4 36.2-.2 54.3.1 6.7 5.2 11.6 10.8 11.1 7.5-.7 10.4-6.1 10.3-12.2-.4-17.3-.4-34.7 0-52 .2-8.2-6.2-13.6-15.4-10.6ZM379 50.4h-12.1v109.4h-14.2V50.5h-22.1V37.3h58v13H379ZM427.7 134.4v-9.5h11c-.2 10.9 2.6 22.7-7.6 31.2-7.3 6.1-16.3 5.3-24.4 2.5-7.6-2.6-11-9.6-11-17.7 0-19-.2-38 0-57 .2-12.7 6.6-18.7 16.4-20 13.1-1.8 23.9 3.1 25.6 15.6.8 5.5 1.1 11.1 1.6 17.1h-11.6c0-3.7.1-7.3 0-11-.2-6.1-5.4-11.9-10.5-11.9-5.8 0-10.5 5.3-10.5 12.1 0 17.5-.3 35.1.2 52.6 0 3.5 2.3 7.8 5 10.2 3.2 2.8 8.7 2.6 11.3-.9 2.6-3.4 3.1-8.4 4.5-13.2ZM307 55.9V37.4h14.1v122.2H307V55.9Z"/><path class="cls-1" d="M190.6 81.4c1.8 2.5 4.3 4.8 5.4 7.6 1.6 4.1 2.2 8.5 3.1 12.8 1 5 .7 9.5-3.6 13.6-2.4 2.3-3.2 6.4-4.6 9.7-4 9.5-7.1 19.4-11.9 28.4-6.2 11.6-15.6 20.6-27.4 26.5-9 4.5-18.4 8.5-27.9 11.9-3.5 1.3-7.9.4-12.3.3-5.2-.9-10.1-1.5-14.9-2.3-6.8-1.1-13.6-2.4-20.7-3.9 1.9-.8 4.1-1.8 6.1-1.6 12.8 1.3 25.5 3.8 38.3 4.1 10.1.3 19.1-5 28-9.6-.2-.6-.3-1.2-.5-1.9-2.4.6-4.9 1.1-7.3 1.8-20.1 6-39.9 4.6-59.6-1.9-1-.3-1.8-1.2-2.5-2.2 1.1-.4 2-.5 3.3-.5.8.1 1.3.2 2 .4.5.4.7.6 1.5.7 1.5.2 2.6.2 3.7.5 13.1 3.6 26.4 5.5 39.8 2.7 29.3-6 47.6-24.2 55.7-52.8 1.4-5 1.5-11.1 4.6-14.7 2.9-3.5 3.2-6.5 3.1-10.2-.2-6.6-.8-13.1-1.2-19.7ZM29.2 129.1c-.4-3.8-.6-7.3-.8-10.9 6.5 12.3 11.9 25.3 21.5 35.8-1.6-.4-2.9-1-4.1-1.7-.9-1-1.8-2-3.1-3.5l-12.4-18.6-1-1Z"/><path class="cls-1" d="M30.2 130.5c4 5.6 8 11.6 12.1 18-1.6 1.3-3.3 2.2-6.2 3.6-2-7.1-6.3-13.4-5.9-21.7ZM45.7 152.7c1.3.3 2.5 1 4.2 1.7 1.4 1 2.4 1.8 3.5 3.1-4.7 2.4-6.6-.3-7.7-4.8ZM73.5 171s.5 0 .8.5c1 1.2 1.7 2.1 2.3 2.9-2.9-1.6-5.8-3.2-8.5-5.1.5-.4.7-.4.9-.4 0 0 .5 0 .9.3.7.5 1 .6 1.3.8 0 0 .5 0 .9.3.7.5 1 .6 1.3.8ZM77 174.4c-.9-.8-1.6-1.7-2.4-2.8 2 .5 4.1 1.2 6.4 2.4-.7.4-1.7.5-2.9.5H77ZM54.7 159.1c.9.2 1.9.7 3.1 1.6-.9-.2-2-.7-3.1-1.6ZM59.1 162.4c.9.2 1.9.7 3.1 1.6-.9-.2-2-.7-3.1-1.6ZM64.7 165.9c.2 0 .5 0 .9.4-.2.1-.5 0-.9-.4ZM69 168.5c-.1.3-.3.3-.8.3-.3 0-.3-.5-.3-.7.3-.1.7 0 1.1.4ZM83.5 174.8c.2 0 .5 0 .9.4-.2.1-.5 0-.9-.4ZM92.8 133.3c-6 .6-11.6.9-17.2 1.3-3.6.2-7.2.6-11.3.9.7-1.3 1-2.3 1.6-3 8.9-9.3 17.8-18.6 26.7-27.8 4.2-4.4 4.1-7-.2-11.5C84.2 84.5 76 75.7 66.9 66c7.8-.5 14.1-.7 20.4-1.3 4.4-.4 7.8 1.2 10.7 4.2 8.3 8.6 16.7 17 24.6 26 1.4 1.6 1.8 6.3.6 7.7-9.1 10.1-18.7 19.7-28.1 29.5-.5.5-1.2.7-2.2 1.3Z"/><path class="cls-1" d="M134.2 98.3c-9.3-10.6-18.6-20.9-29.1-32.3 9.2-.4 17-1.6 24.5-.8 3.6.4 7.2 4 10.1 6.9 7.6 7.9 14.9 16 22 24.4.9 1.1.5 4.7-.6 5.9-8.9 9.7-18 19.4-27.5 28.5-2.6 2.5-6.9 4.2-10.5 4.5-6.5.5-13.1-.4-20.3-.8 4.5-4.9 8.8-9.8 13.2-14.5 5.7-6.2 11.5-12.3 17.2-18.5.6-.7.7-2 1-3.4ZM71.2 169.7c-.2.1-.5 0-.9-.4.2 0 .5 0 .9.4ZM73.4 170.8c-.2.1-.5 0-.9-.4.2 0 .5 0 .9.4Z"/></svg>