<svg id="Layer_1" data-name="Layer 1" xmlns="http://www.w3.org/2000/svg" version="1.1" viewBox="0 0 1200 283"><defs/><path class="cls-1" fill="#fff" d="M484.5 222.2c.5-5.9 1.2-11.9 2.1-17.8.8-5.4 1.8-10.9 2.7-16.3 1.3-8.1 2.7-16.1 3.9-24.2.8-5.2 1.5-10.4 2.3-15.6 1.1-6.9 2.3-13.8 3.3-20.7 1-6.8 1.8-13.7 2.9-20.5.8-5.3 1.9-10.5 2.8-15.7.9-5.4 1.5-10.8 2.3-16.1.7-4.3 1.5-8.7 2.2-13.2 21.3-.2 42.7-.2 64.4 0 3 .9 4.3 2.9 4.7 5.3.9 6.2 1.6 12.4 2.3 18.6.5 4.5.7 9.1 1.2 13.6.9 7.7 1.9 15.4 2.8 23.1.9 8 1.6 15.9 2.4 23.9 1.1-.6 1.8-1.3 2.2-2.2l10.8-27.6c5.1-12.9 10-25.9 15.3-38.7 2.3-5.7 3.3-12.3 9-16.1h70c-.6 5.8-1.4 11.6-2.2 17.5-.8 5.3-1.7 10.7-2.6 16-1.3 7.6-2.6 15.2-3.8 22.8-.9 5.3-1.6 10.5-2.4 15.8-1.2 7.6-2.6 15.2-3.8 22.8-1.1 6.6-2 13.3-3 19.9-.7 4.8-1.5 9.6-2.3 14.4-.9 5.2-1.9 10.4-2.8 15.7-.8 5-1.5 10-2.3 15.2-14.4.2-28.7.2-43.3 0 .6-6.3 1.3-12.3 2.2-18.3 1-7 2.1-14 3.2-21 .7-4.4 1.3-8.7 2-13.1.8-5.5 1.7-11.1 2.6-16.6.9-5.9 1.9-11.8 2.7-17.7.5-3.6.6-7.2.9-10.8-.3 0-.6-.1-.9-.2-2.9 6.3-5.8 12.5-8.8 18.7-7.3 15.5-14.7 30.9-22 46.4-3.4 7.2-6.9 14.5-10.3 21.7-2 4.2-3.6 8.6-8 11-9.6 0-19.3 0-29.2-.2-1.6-2.1-3.6-3.7-4.1-5.8-1.3-5.7-2.1-11.5-2.9-17.4-1.2-8.4-2.2-16.8-3.4-25.2-1.2-8.4-2.7-16.7-3.9-25.1-1.1-7.3-1.9-14.6-2.9-21.9-.2-1.6-.7-3.1-1.1-4.6-1.2 4.7-1.8 9.3-2.5 13.9-1 7-2.1 14-3.2 21-.8 5.6-1.6 11.3-2.5 16.9-1 7-2.1 14-3.2 21-.7 4.4-1.3 8.7-2 13.1-.7 4.7-1.3 9.5-2 14.2h-41.6ZM179.2 222.2c-2.7-1.6-5.5-2.9-7.5-5-3-3.2-2.8-7.6-2.3-11.6.9-6.9 2.1-13.8 3.3-20.7 1.1-6.6 2.3-13.2 3.3-19.8 1-6.7 1.9-13.5 2.9-20.2.8-5.3 1.9-10.7 2.7-16 .9-5.4 1.4-10.8 2.4-16.1 1.3-6.7 1.2-13.7 4.3-20 3.6-7.3 9.8-10.9 17.4-10.9 37.9-.3 75.9-.2 113.8 0 9.6 0 14.2 7.9 12.4 15.2-1.6 6.6-2 13.5-3 20.2-.8 5.3-1.9 10.7-2.8 16-.9 5.4-1.5 10.8-2.4 16.1-.6 3.7-1 7.5-2.5 10.9-2.9 6.9-7.2 9.8-14.7 9.9-29.3.1-58.7 0-88 0-2.9 0-3.9 1-4.1 3.8-.2 2.8-.9 5.6-1.5 8.4-.8 3.5-.2 4.3 3.5 4.3h101.8c-1.9 11.9-3.8 23.5-5.7 35.4-44.4.2-88.7.2-133.4.2m83.9-87.9h22.1c2.1 0 3-.7 3.2-2.9.3-3.1.8-6.2 1.5-9.2.8-3.5-.2-4.9-3.8-4.9H227.2c-2.7 0-4.2 1.1-4.6 3.6-.5 3.1-.8 6.2-1.2 9.3-.5 4.1-.4 4.1 3.7 4.1H263ZM1040.6 222.2c.7-5.4 1.7-10.8 2.5-16.2 1-6.4 1.9-12.9 2.9-19.4H1141.6c2.5 0 4-.3 4.2-3.4.1-3.5 1-6.9 1.6-10.3.3-2.1-.5-2.8-2.7-2.8h-82.4c-7.7 0-13.2-7.3-11.5-14.8 1.2-5.4 1.7-10.9 2.6-16.3 1-6.5 2-13.1 3-19.6.9-5.5 2-11 2.6-16.6.8-7.8 3.4-14.4 10.8-18.4 3.8-2 7.9-2.5 12-2.5h118.6c.3 1.7.3 3.4 0 5.5 0 .8 0 1.4.2 1.9 0 0 0 .3-.2.5-.4.6-.8 1-.9 1.4-1.4 8.8-2.9 17.5-4.3 26.5h-95.3c-3.5 0-4.3.8-4.6 4.3-.3 2.9-.7 5.9-1.2 8.8-.6 3.4-.3 3.9 3.1 3.9h80.4c2.3 0 4.8.5 7 1.3 3.9 1.3 7.1 8 6.4 11.9-1.2 6.7-2.3 13.4-3.4 20.1-.9 5.6-1.9 11.2-2.7 16.8-.8 5.5-1.5 10.9-2.4 16.4-.6 3.8-1.2 7.6-2.2 11.3-1.6 5.6-6.2 8.1-11.3 9.9h-128.3ZM329.3 222.2c.5-5.4 1.3-10.7 2.1-16.1.9-5.6 1.9-11.2 2.7-16.9.3-2.1 1-2.8 3.1-2.8h90.6c30.2 0 6.2 0 7.2-5.8.4-2.5.8-5.1 1.2-7.6.4-2.4-.6-3-3-3H352c-9.6 0-13.9-6.5-12.5-15.4.8-5.5 1.8-11 2.8-16.6 1.1-6.9 2.3-13.8 3.4-20.7.8-5.4 1.7-10.7 2.3-16.1.9-8.2 4.2-14.6 12.2-17.7 2.8-1.1 6-1.8 9.1-1.8 39.8-.1 79.6 0 119.5 0 .2 0 .4 0 1.1.2-1.9 11.8-3.9 23.5-5.8 35.5h-93.3c-5.3 0-5.4 0-6.6 5.1-.7 2.9-1 6-1.4 9-.3 2.2.4 3 2.8 3h58.3c19.4 0 15.5-.2 23.2 0 10.6.4 13.5 6.6 12.5 15.2-1 8.4-2.5 16.7-3.9 25-1.5 8.9-3 17.7-4.5 26.6-.5 3-.7 6-1.2 9-.6 4.1-5.2 10.2-11.8 11.6-42.7.2-85.4.2-128.4.2ZM63.2 61.9c-.6 6.4-1.4 12.8-2.3 19.2-.6 4.4-1.3 8.7-2 13.1-.9 6-1.9 12-2.8 18-.8 5.5-1.5 10.9-2.3 16.4-1.1 7.3-2.3 14.5-3.4 21.8-1 6.9-1.9 13.9-2.9 20.8-.5 3.2-1 6.3-1.6 9.5-.5 2.6 1.7 5.7 4.5 5.9h105.8c-1.9 11.9-3.7 23.5-5.5 35.4-46.3.2-92.5.2-139 0-.8-.6-1.4-1-1.9-1.5-2.3-2-4.6-4-6.9-6.1-.9-.8-1.5-2-2.3-2.9 0-4 0-8 .2-12.3 0-1.2 0-2.1-.2-3 0-.4 0-.8.2-1.5.6-1.4 1.2-2.6 1.5-3.8.3-1.8.3-3.7.6-5.5 1.1-6.6 2.3-13.2 3.3-19.8 1.2-8.1 2.2-16.2 3.5-24.3 1.2-8 2.7-15.9 3.9-23.9 1.4-9.2 2.6-18.4 4-27.5 1.4-9.3 3-18.6 4.5-27.9h41.1ZM905.2 222.2c-4.2-1.6-7.6-3.9-9.8-7.7-2.3-3.8-1.7-7.8-1.1-11.8.8-5.6 1.8-11.2 2.7-16.9 1.1-6.9 2.3-13.8 3.3-20.7.8-5.6 1.5-11.1 2.4-16.7.8-5.5 1.8-11.1 2.7-16.6.9-5.5 1.6-11.1 2.4-16.7.8-5.2 1.5-10.4 2.3-15.6.9-6 2-11.9 2.9-17.8h39.4c-.7 4.9-1.4 9.7-2.2 14.6-1.1 7.4-2.3 14.7-3.4 22.1-1 7.1-1.9 14.3-2.9 21.4-1.1 7.3-2.3 14.5-3.3 21.8-.8 5.7-1.5 11.5-2.3 17.3 0 .4 0 .7-.1 1.1-1 4.1.8 6.5 4.9 6.5h86.5c-.5 3.3-.9 6.4-1.4 9.5-.9 5.5-1.8 11.1-2.6 16.6-.4 3-.8 6-1.1 9.3-39.7.3-79.3.3-119.2.3ZM756.3 222.2c-3.9-1.5-7.1-3.6-9.4-7-2.7-4-2.2-8.2-1.5-12.5.8-5.6 1.8-11.2 2.7-16.9l3.3-20.7c.8-5.5 1.5-10.9 2.4-16.4 1.3-8.2 2.7-16.3 3.9-24.5 1-6.9 1.9-13.9 2.9-20.8.8-5.5 1.9-11 2.8-16.6.3-1.7.4-3.4.6-5.1h39.6c-.7 4.7-1.5 9.4-2.2 14-.9 6.2-1.9 12.4-2.8 18.6-.8 5.7-1.5 11.3-2.4 17-1.1 7.5-2.3 14.9-3.4 22.4-1 7.1-1.9 14.2-2.9 21.4-.2 1.6-.3 3.3-.7 4.9-1 4.3.7 6.5 5.2 6.5H880.5c-.6 4.6-1.2 9-1.8 13.3-.8 5.5-1.8 11.1-2.7 16.6-.3 1.8-.7 3.6-1.1 5.6-39.5.2-79 .2-118.7.2ZM685.5 222.2c.6-5.6 1.4-11.3 2.2-16.9.8-5.5 1.7-11.1 2.6-16.6 1-6.7 2-13.4 3-20.2.9-5.5 1.8-11.1 2.6-16.6.9-5.4 1.7-10.9 2.5-16.3.9-5.5 1.7-11.1 2.6-16.6 1-6.7 2-13.4 3.1-20.2.7-4.4 1.3-8.7 2-13.1.2-1.3.5-2.5.7-3.9h40.8c-.5 3.8-1 7.5-1.6 11.2-.8 5.4-1.7 10.7-2.6 16-1 6.7-2 13.4-3.1 20.2-.8 5.4-1.8 10.9-2.6 16.3-1 6.7-1.9 13.5-2.9 20.2-.8 5.5-1.9 11-2.8 16.6-1.3 8.2-2.7 16.3-3.9 24.5-.7 4.3-1.2 8.6-1.8 12.9 0 .7-.4 1.4-.6 2.3-13.4.2-26.8.2-40.5.2Z"/></svg>
