<?xml version="1.0" encoding="UTF-8"?><svg width="70" height="70" id="a" xmlns="http://www.w3.org/2000/svg" viewBox="0 0 234.06 106.58"><path d="M38.68,78.01c0-.41.17-.75.51-1.03.34-.28.76-.42,1.26-.42h20.27c.49,0,.92.14,1.26.42.34.28.51.62.51,1.03s-.17.75-.51,1.03c-.34.28-.77.42-1.26.42h-18.5v10.57h13.28c.49,0,.91.14,1.26.42.34.28.52.63.52,1.03s-.17.75-.52,1.03c-.34.28-.77.42-1.26.42h-13.28v10.76h18.5c.49,0,.92.14,1.26.42.34.28.51.62.51,1.03s-.17.75-.51,1.03c-.34.28-.77.42-1.26.42h-20.27c-.5,0-.92-.14-1.26-.42-.34-.28-.51-.62-.51-1.03v-27.12Z" style="fill:#fff;"/><path d="M64.67,78.01c0-.41.17-.75.51-1.03.34-.28.76-.42,1.26-.42s.92.14,1.26.42c.34.28.52.62.52,1.03v25.67h18.5c.5,0,.91.14,1.26.42.34.28.52.62.52,1.03s-.17.75-.52,1.03c-.34.28-.76.42-1.26.42h-20.27c-.5,0-.92-.14-1.26-.42-.34-.28-.51-.62-.51-1.03v-27.12Z" style="fill:#fff;"/><path d="M90.21,78.01c0-.41.17-.75.52-1.03.34-.28.76-.42,1.26-.42s.92.14,1.26.42c.34.28.51.62.51,1.03v25.67h18.5c.5,0,.92.14,1.26.42.34.28.52.62.52,1.03s-.17.75-.52,1.03c-.34.28-.76.42-1.26.42h-20.27c-.5,0-.92-.14-1.26-.42-.34-.28-.52-.62-.52-1.03v-27.12Z" style="fill:#fff;"/><path d="M138.65,87.45c0-1.09-.26-2.12-.77-3.09-.51-.97-1.22-1.82-2.12-2.55-.9-.73-1.94-1.31-3.12-1.73-1.18-.42-2.44-.63-3.78-.63s-2.6.21-3.78.63c-1.18.42-2.21,1-3.09,1.73-.88.73-1.57,1.58-2.09,2.55-.52.97-.77,1.99-.77,3.09v17.68c0,.41-.17.75-.52,1.03-.34.28-.76.42-1.26.42s-.92-.14-1.26-.42c-.34-.28-.52-.62-.52-1.03v-17.68c0-1.5.34-2.91,1.03-4.23.69-1.32,1.63-2.48,2.83-3.46,1.21-.98,2.62-1.76,4.24-2.34,1.62-.58,3.35-.87,5.18-.87s3.56.29,5.18.87c1.62.58,3.03,1.36,4.24,2.34,1.2.98,2.16,2.14,2.86,3.46.71,1.33,1.06,2.73,1.06,4.23v17.68c0,.41-.17.75-.51,1.03-.34.28-.77.42-1.26.42s-.92-.14-1.26-.42c-.34-.28-.52-.62-.52-1.03v-17.68Z" style="fill:#fff;"/><path d="M145.47,78.01c0-.41.17-.75.52-1.03.34-.28.76-.42,1.26-.42h20.27c.5,0,.92.14,1.26.42.34.28.52.62.52,1.03s-.17.75-.52,1.03c-.34.28-.77.42-1.26.42h-18.49v10.57h13.28c.49,0,.91.14,1.26.42.34.28.51.63.51,1.03s-.17.75-.51,1.03c-.35.28-.77.42-1.26.42h-13.28v10.76h18.49c.5,0,.92.14,1.26.42.34.28.52.62.52,1.03s-.17.75-.52,1.03c-.34.28-.77.42-1.26.42h-20.27c-.5,0-.91-.14-1.26-.42-.34-.28-.52-.62-.52-1.03v-27.12Z" style="fill:#fff;"/><path d="M192.65,83.71c-.04-.56-.29-1.1-.74-1.61-.46-.51-1.08-.97-1.86-1.38-.78-.4-1.69-.72-2.72-.96-1.03-.23-2.12-.35-3.26-.35s-2.3.12-3.35.35c-1.05.23-1.96.55-2.72.96-.77.41-1.37.89-1.83,1.45-.46.56-.69,1.15-.69,1.78s.28,1.19.86,1.71c.57.52,1.29.96,2.15,1.33.86.37,1.78.69,2.78.93.99.25,1.93.42,2.8.51,1.76.16,3.41.49,4.95,1.01,1.55.51,2.89,1.16,4.03,1.94,1.15.78,2.04,1.69,2.69,2.74.65,1.05.97,2.17.97,3.39s-.33,2.42-1,3.53c-.67,1.11-1.59,2.07-2.78,2.87-1.19.81-2.56,1.46-4.12,1.94-1.57.48-3.25.73-5.04.73s-3.47-.23-5.04-.7c-1.56-.47-2.94-1.11-4.12-1.94-1.18-.83-2.11-1.78-2.78-2.88-.67-1.09-1-2.26-1-3.51,0-.37.16-.69.49-.96.33-.26.72-.4,1.17-.4s.85.13,1.17.4c.32.27.49.58.49.96,0,.87.25,1.69.74,2.46.5.76,1.17,1.43,2.03,1.99.86.56,1.87,1.01,3.04,1.33,1.16.33,2.41.49,3.75.49s2.6-.16,3.78-.49,2.22-.77,3.12-1.33c.9-.56,1.59-1.22,2.09-1.99.49-.76.71-1.58.63-2.46-.08-.81-.38-1.57-.92-2.27-.53-.7-1.22-1.33-2.06-1.87-.84-.55-1.8-1-2.89-1.36-1.09-.36-2.22-.62-3.41-.77-1.6-.09-3.14-.34-4.61-.75-1.47-.41-2.76-.93-3.87-1.57-1.11-.64-2-1.39-2.66-2.24-.67-.86-1-1.8-1-2.83s.31-1.99.94-2.88c.63-.89,1.5-1.67,2.61-2.34,1.11-.67,2.4-1.2,3.86-1.59,1.47-.39,3.04-.58,4.72-.58s3.25.19,4.73.58c1.47.39,2.76.92,3.86,1.59,1.11.67,1.98,1.45,2.61,2.34.63.89.94,1.85.94,2.88,0,.41-.17.75-.52,1.03-.34.28-.76.42-1.26.42s-.91-.15-1.23-.44c-.32-.3-.51-.7-.54-1.19Z" style="fill:#fff;"/><path d="M220.82,83.71c-.04-.56-.29-1.1-.75-1.61-.46-.51-1.08-.97-1.86-1.38-.78-.4-1.69-.72-2.72-.96-1.03-.23-2.12-.35-3.26-.35s-2.3.12-3.35.35c-1.05.23-1.96.55-2.72.96-.76.41-1.37.89-1.83,1.45-.46.56-.69,1.15-.69,1.78s.28,1.19.86,1.71c.57.52,1.29.96,2.15,1.33.86.37,1.78.69,2.78.93.99.25,1.93.42,2.8.51,1.76.16,3.41.49,4.95,1.01,1.55.51,2.89,1.16,4.04,1.94,1.14.78,2.04,1.69,2.69,2.74.65,1.05.97,2.17.97,3.39s-.33,2.42-1,3.53c-.67,1.11-1.59,2.07-2.78,2.87-1.18.81-2.56,1.46-4.12,1.94-1.57.48-3.25.73-5.04.73s-3.47-.23-5.04-.7c-1.57-.47-2.94-1.11-4.12-1.94-1.19-.83-2.11-1.78-2.78-2.88-.67-1.09-1-2.26-1-3.51,0-.37.16-.69.49-.96.32-.26.72-.4,1.17-.4s.85.13,1.18.4c.32.27.49.58.49.96,0,.87.25,1.69.74,2.46.5.76,1.17,1.43,2.03,1.99.86.56,1.87,1.01,3.04,1.33,1.16.33,2.41.49,3.75.49s2.6-.16,3.78-.49c1.18-.33,2.22-.77,3.12-1.33.9-.56,1.59-1.22,2.09-1.99.49-.76.71-1.58.63-2.46-.08-.81-.38-1.57-.92-2.27-.54-.7-1.22-1.33-2.06-1.87-.84-.55-1.8-1-2.89-1.36-1.09-.36-2.22-.62-3.41-.77-1.6-.09-3.14-.34-4.61-.75-1.47-.41-2.76-.93-3.87-1.57-1.11-.64-1.99-1.39-2.66-2.24-.67-.86-1-1.8-1-2.83s.31-1.99.95-2.88c.63-.89,1.5-1.67,2.61-2.34,1.11-.67,2.39-1.2,3.86-1.59,1.47-.39,3.04-.58,4.72-.58s3.25.19,4.72.58c1.47.39,2.76.92,3.87,1.59,1.11.67,1.97,1.45,2.6,2.34.63.89.95,1.85.95,2.88,0,.41-.17.75-.52,1.03-.34.28-.77.42-1.26.42s-.91-.15-1.23-.44c-.32-.3-.51-.7-.54-1.19Z" style="fill:#fff;"/><path d="M36.22,78.18l-6.28,26.86c-.21.9-.87,1.34-1.98,1.34-1.19,0-1.94-.45-2.25-1.34l-7.42-17.49-6.82,17.49c-.28.9-1.01,1.34-2.2,1.34s-1.93-.45-2.14-1.34L.43,78.18c-.1-.49.02-.88.36-1.17.35-.29.77-.43,1.25-.43.91,0,1.44.36,1.62,1.09l5.81,23.29,7.12-18.66c.21-.66.73-1,1.57-1s1.41.33,1.62,1l7.74,18.46,5.45-23.09c.17-.72.7-1.09,1.57-1.09.52,0,.95.15,1.3.43.35.29.47.68.37,1.17Z" style="fill:#fff;"/><path d="M98.65,7.13c9.64,0,17.66,3.05,24.07,9.15,6.41,6.1,9.62,13.75,9.62,22.95s-3.23,16.81-9.71,22.84c-6.47,6.03-14.63,9.04-24.47,9.04s-17.23-3.01-23.5-9.04c-6.26-6.03-9.39-13.58-9.39-22.66s3.15-17.03,9.46-23.13c6.3-6.1,14.28-9.15,23.92-9.15ZM99.01,15.61c-7.14,0-13.01,2.23-17.6,6.7-4.59,4.47-6.89,10.17-6.89,17.1s2.31,12.32,6.91,16.79c4.61,4.46,10.38,6.7,17.31,6.7s12.77-2.28,17.42-6.83c4.65-4.55,6.98-10.22,6.98-17.01s-2.33-12.17-6.98-16.68c-4.65-4.51-10.37-6.76-17.15-6.76Z" style="fill:#fff;"/><path d="M183.31,8.07c.67.65,1.01,1.48,1.01,2.51,0,.65-.16,1.35-.49,2.11l-23.96,54.97c-.7,1.78-1.97,2.67-3.8,2.67-1.73,0-3-.89-3.8-2.67l-23.72-54.24c-.43-1.13-.65-2.08-.65-2.83,0-1.08.34-1.93,1.01-2.55.67-.62,1.61-.93,2.79-.93,1.89,0,3.19.84,3.89,2.51l20.4,48.9,20.73-48.9c.38-.97.86-1.63,1.46-1.98.59-.35,1.37-.53,2.35-.53,1.19,0,2.12.32,2.79.97Z" style="fill:#fff;"/><path d="M223.68,63.61c.76.7,1.13,1.62,1.13,2.75s-.38,2.15-1.13,2.87c-.76.73-1.76,1.09-2.99,1.09h-29.3c-1.19,0-2.19-.4-2.99-1.21-.81-.81-1.22-1.81-1.22-3V11.31c0-1.24.4-2.25,1.22-3.04.81-.78,1.81-1.17,2.99-1.17h29.3c1.24,0,2.24.36,2.99,1.09.76.73,1.13,1.69,1.13,2.87s-.38,2.05-1.13,2.75c-.76.7-1.76,1.05-2.99,1.05h-25.09v19.67h15.94c1.19,0,2.17.36,2.96,1.09.78.73,1.17,1.66,1.17,2.79s-.39,2.06-1.17,2.79c-.78.73-1.77,1.09-2.96,1.09h-15.94v20.24h25.09c1.24,0,2.24.35,2.99,1.05Z" style="fill:#fff;"/><path d="M38.34,7.16c0,3.95-3.21,7.16-7.16,7.16s-7.16-3.21-7.16-7.16S27.23,0,31.18,0s7.16,3.21,7.16,7.16Z" style="fill:#fff;"/><path d="M.05,12.06v-.21s.02-.09.02-.13c.04-.29.05-.58.11-.86.33-1.47,1.1-2.66,2.34-3.52.61-.42,1.29-.68,2.02-.77.12-.01.24-.03.36-.05h.23c.06,0,.11.02.17.03.11.01.22.01.33.03.65.1,1.27.31,1.84.65,1.05.63,2.09,1.27,3.13,1.9,3.42,2.08,6.83,4.16,10.24,6.24,3.39,2.07,6.78,4.13,10.17,6.2.07.04.12.04.19,0,1.82-1.11,3.64-2.22,5.45-3.33,2.73-1.67,5.46-3.33,8.19-4.99,2.87-1.75,5.73-3.5,8.6-5.24.5-.3.99-.61,1.5-.89.54-.3,1.12-.48,1.73-.55.14-.01.27-.03.41-.05h.23c.12.02.25.03.37.05.66.07,1.28.29,1.84.65,1.62,1.06,2.49,2.57,2.63,4.5,0,.05.02.1.03.15v.19c-.02.15-.03.3-.05.45-.05.5-.18.98-.39,1.43-.44.94-1.13,1.64-2.01,2.17-4.08,2.49-8.16,4.98-12.24,7.46-4.58,2.79-9.17,5.59-13.75,8.38-.65.4-1.34.67-2.1.76-.11.01-.23.03-.34.05h-.42c-.14-.02-.28-.03-.43-.06-.68-.1-1.31-.33-1.9-.69-1.51-.92-3.03-1.84-4.54-2.77-3.71-2.26-7.41-4.52-11.11-6.77-3.42-2.08-6.83-4.17-10.25-6.25-.61-.37-1.17-.8-1.62-1.36-.55-.7-.88-1.48-.97-2.36-.02-.15-.03-.3-.05-.45Z" style="fill:#fff; fill-rule:evenodd;"/><path d="M0,16.55v48.65c0,3.28,2.66,5.94,5.94,5.94s5.94-2.66,5.94-5.94V23.84L0,16.55Z" style="fill:#fff; fill-rule:evenodd;"/><path d="M62.29,16.53v48.65c0,3.28-2.66,5.94-5.94,5.94s-5.94-2.66-5.94-5.94V23.81l11.88-7.29Z" style="fill:#fff; fill-rule:evenodd;"/><path d="M234.06,102.73c0,.58-.14,1.12-.42,1.62-.28.5-.67.9-1.15,1.19-.49.29-1.01.43-1.57.43s-1.08-.14-1.57-.43c-.49-.29-.87-.68-1.15-1.19s-.42-1.04-.42-1.62.14-1.12.42-1.62c.28-.5.67-.9,1.15-1.19.49-.29,1.01-.43,1.57-.43s1.09.14,1.57.43c.49.29.87.69,1.15,1.19.28.5.42,1.04.42,1.62ZM233.45,102.73c0-.72-.25-1.34-.74-1.85-.5-.51-1.09-.77-1.79-.77s-1.3.26-1.79.77c-.5.51-.74,1.13-.74,1.85s.25,1.34.74,1.85,1.09.77,1.79.77,1.3-.26,1.79-.77c.5-.51.74-1.13.74-1.85ZM229.49,100.99h1.5c.43,0,.73.09.92.27.19.18.29.41.29.71,0,.23-.07.43-.22.6-.15.17-.37.29-.69.37.13.05.22.1.28.16.09.08.17.2.27.35,0,.01.19.35.54,1h-.99c-.32-.66-.54-1.06-.65-1.18s-.22-.19-.33-.19c-.02,0-.06,0-.1.01v1.37h-.84v-3.47ZM230.32,102.46h.36c.24,0,.41-.04.51-.12s.15-.19.15-.31-.05-.23-.14-.31c-.09-.08-.26-.12-.48-.12h-.4v.87Z" style="fill:#fff;"/></svg>
