<?xml version="1.0" encoding="UTF-8"?>
<svg width="70" height="70" id="Layer_1" xmlns="http://www.w3.org/2000/svg" version="1.1" viewBox="0 0 207.48 129.71">
  <!-- Generator: Adobe Illustrator 29.5.1, SVG Export Plug-In . SVG Version: 2.1.0 Build 141)  -->
  <defs>
    <style>
      .st0 {
        fill: #fff;
      }
    </style>
  </defs>
  <g>
    <path class="st0" d="M0,120.45l2.18-11.62c.42-2.18.7-4.05.91-5.6h4.47l-.32,2.85h.07c1.35-2.01,3.6-3.22,6.02-3.24,2.82,0,4.44,1.73,4.44,4.72-.03.97-.12,1.93-.28,2.89l-1.9,10h-5.07l1.8-9.54c.11-.63.17-1.26.18-1.9,0-1.23-.42-2.08-1.73-2.08-1.66,0-3.56,2.08-4.3,5.88l-1.41,7.64H0Z"/>
    <path class="st0" d="M34.4,119.47c-2.01.93-4.2,1.4-6.41,1.37-4.93,0-7.47-2.78-7.47-7.29,0-5.25,3.8-10.7,10.04-10.7,3.49,0,5.99,1.97,5.99,5.18,0,4.37-4.26,5.95-11.16,5.77.01.62.19,1.23.53,1.76.83.94,2.06,1.44,3.31,1.33,1.67.01,3.32-.36,4.82-1.09l.35,3.66ZM31.8,107.99c0-.85-.71-1.44-1.87-1.44-2.02.09-3.7,1.57-4.05,3.56,3.94.03,5.92-.49,5.92-2.08v-.04Z"/>
    <path class="st0" d="M37.82,120.45l4.75-24.53h5.07l-4.75,24.53h-5.07Z"/>
    <path class="st0" d="M47.96,115.95c1.4.71,2.94,1.12,4.51,1.2,1.41,0,2.15-.7,2.15-1.55s-.56-1.44-2.15-2.22c-1.97-.99-3.63-2.43-3.63-4.58,0-3.6,3.14-5.95,7.57-5.95,1.52-.06,3.02.24,4.4.89l-1.2,3.59c-1.09-.48-2.26-.73-3.45-.74-1.34,0-2.22.56-2.22,1.51,0,.71.7,1.3,2.08,1.94,1.9.95,3.87,2.36,3.87,4.75,0,3.94-3.35,6.09-7.92,6.06-1.84.03-3.65-.43-5.25-1.34l1.23-3.56Z"/>
    <path class="st0" d="M70.01,120.84c-4.4,0-7.33-2.86-7.33-7.11,0-5.95,4.16-10.88,10.28-10.88,4.65,0,7.33,3.17,7.33,7.11,0,6.27-4.33,10.88-10.25,10.88h-.03ZM70.68,116.97c2.75,0,4.33-4.05,4.33-6.97,0-1.62-.7-3.27-2.71-3.27-2.92,0-4.4,4.23-4.4,6.9,0,2.01,1.02,3.34,2.75,3.34h.03Z"/>
    <path class="st0" d="M90.12,102.75h-5.43l-.06.42c-.17,1.26-.45,3.21-.91,5.58l-2.18,11.62-.11.57h6.05l.07-.4,1.41-7.64c.7-3.6,2.45-5.49,3.82-5.49.75,0,1.24.27,1.24,1.6,0,.61-.06,1.22-.17,1.82,0,0-1.79,9.54-1.79,9.54l-.11.57h6.05l.07-.4,1.9-10c.17-.98.26-1.98.29-2.97,0-3.26-1.84-5.2-4.92-5.2-2.05,0-4.02.83-5.45,2.3l.22-1.92Z"/>
    <path class="st0" d="M109.71,113.63c-.09-.82-.18-1.7-.28-2.9,0-.01-.81-7.55-.81-7.55l-.05-.43h-6.22l.1.56,2.89,17.22.07.4h5.87l.14-.25,9.58-17.22.4-.72h-6.8l-.13.28-3.45,7.57-1.31,3.03Z"/>
    <path class="st0" d="M192.35,115.95c1.4.71,2.94,1.12,4.51,1.2,1.41,0,2.15-.7,2.15-1.55s-.56-1.44-2.15-2.22c-1.97-.99-3.63-2.43-3.63-4.58,0-3.6,3.14-5.95,7.57-5.95,1.52-.06,3.02.25,4.4.89l-1.2,3.59c-1.09-.48-2.26-.73-3.45-.74-1.34,0-2.22.56-2.22,1.51,0,.71.7,1.3,2.08,1.94,1.9.95,3.88,2.36,3.88,4.75,0,3.94-3.35,6.09-7.92,6.06-1.84.03-3.65-.43-5.25-1.34l1.24-3.56Z"/>
    <path class="st0" d="M130.79,120.45c.04-.98.14-2.18.21-3.41h-.07c-1.62,2.85-3.84,3.81-5.85,3.81-3.1,0-5.21-2.4-5.21-5.99,0-5.81,3.88-12.01,12.33-12.01,1.92,0,3.83.29,5.67.85l-1.73,9.02c-.48,2.55-.71,5.15-.7,7.75h-4.65ZM132.17,106.83c-.44-.09-.89-.14-1.34-.14-3.27,0-5.67,4.01-5.67,7.22,0,1.69.67,2.85,2.08,2.85,1.51,0,3.45-1.73,4.22-5.95l.71-3.98Z"/>
    <path class="st0" d="M139.07,120.45l1.97-10.25c.46-2.6.7-5.49.88-6.97h4.37c-.07,1.17-.17,2.32-.32,3.56h.14c1.2-2.32,3.1-3.94,5.46-3.94.35,0,.67.04.95.04l-.99,4.97c-.26-.03-.52-.04-.77-.03-3.2,0-4.76,2.85-5.39,6.23l-1.2,6.41h-5.1Z"/>
    <path class="st0" d="M153.33,122.85c1.42.64,2.95.96,4.51.95,2.54,0,4.4-1.13,5.14-4.58l.28-1.48h-.07c-1.1,1.64-2.96,2.61-4.93,2.57-3.42,0-5.49-2.78-5.53-6.16-.14-6.11,4.69-11.17,10.8-11.31.25,0,.5,0,.75,0,2.18-.02,4.35.39,6.37,1.2l-2.61,14.19c-.6,3.17-1.58,5.99-3.63,7.64-1.94,1.37-4.28,2.05-6.65,1.94-1.94.08-3.87-.3-5.64-1.09l1.2-3.87ZM165.16,107.04c-.59-.22-1.21-.33-1.83-.32-3.06,0-5.25,3.42-5.25,6.66,0,1.76.77,3.03,2.32,3.03,1.66,0,3.31-1.87,3.88-4.75l.88-4.61Z"/>
    <path class="st0" d="M183.4,120.45c.03-.98.14-2.18.21-3.41h-.07c-1.62,2.85-3.84,3.81-5.85,3.81-3.1,0-5.21-2.4-5.21-5.99,0-5.81,3.87-12.01,12.33-12.01,1.92,0,3.83.29,5.67.85l-1.73,9.02c-.47,2.55-.71,5.15-.7,7.75h-4.65ZM184.78,106.83c-.44-.09-.89-.14-1.34-.14-3.27,0-5.67,4.01-5.67,7.22,0,1.69.67,2.85,2.08,2.85,1.51,0,3.45-1.73,4.23-5.95l.71-3.98Z"/>
  </g>
  <g>
    <path class="st0" d="M49.38,47.23c-3.23-1.11-1.6-5.63-1.6-5.63.67-1.6,12.72-38.12,47.87-39.98.57-.02,1.15-.04,1.7-.04,15.21,0,24.88,9.1,30.56,19.36,4.66,8.55,7.11,18.13,7.12,27.87,0,.67-.03,1.34-.11,2.01-.21,3.83-1.96,7.41-4.86,9.93-2.29,1.61-5.08,2.36-7.87,2.11h-.08c-3.82-.15-7.17-2.61-8.47-6.2-1.13-2.87-2.09-5.8-2.87-8.78-1.73-5.6-4.24-10.94-7.45-15.85-4.17-6.58-11.4-10.59-19.19-10.63h-.42c-13.51.32-22.31,11.63-25.82,17.73l-1.85,3.54c-.75,1.15-2.61,5.95-6.66,4.55"/>
    <path class="st0" d="M155.35,47.61c3.22,1.11,1.6,5.63,1.6,5.63-.68,1.59-12.73,38.12-47.89,39.99-.57.02-1.15.03-1.7.03-15.21,0-24.87-9.1-30.56-19.36-4.66-8.55-7.11-18.13-7.11-27.87,0-.67.03-1.34.11-2.01.21-3.83,1.96-7.41,4.85-9.93,2.3-1.61,5.09-2.36,7.88-2.11h.1c3.82.15,7.17,2.6,8.47,6.2,1.13,2.87,2.09,5.81,2.87,8.79,1.73,5.6,4.24,10.93,7.45,15.84,4.16,6.58,11.4,10.59,19.19,10.62h.43c13.51-.32,22.31-11.63,25.81-17.72l1.84-3.54c.75-1.16,2.6-5.96,6.66-4.55"/>
  </g>
</svg>
