<svg  id="Layer_1" xmlns="http://www.w3.org/2000/svg" version="1.1" width="170" height="130" viewBox="0 0 1044.1 208.1"><defs><style>.st3{fill:#fff}</style></defs><path d="M884.1 41.9c31.6 5.4 62.2 13 91.3 26 14.6 6.4 29 13.5 41 24.4 6 5.6 11.4 12.4 16 19.3 3.8 5.6 3.5 12.3 1.3 20-5.5-24.8-23.3-36.9-43-47a298.5 298.5 0 0 0-90.4-28.5c-46.5-7.2-93.2-14.1-140-19.1-51.8-5.5-103.8-9.4-155.8-12.8-54.7-3.7-109.6-3.4-164.4-.7-33.8 1.7-67.6 3-101.3 5.5C245.4 36 153 48.8 63.1 76.7c-11.8 3.7-23.3 8-33.5 15.2-11.3 8-20.1 17.6-18.3 33.9-4.2-9-2.5-21.8 3.4-30.4A62.8 62.8 0 0 1 39 75.8a257.1 257.1 0 0 1 62.2-22.3c29-6.4 58-13.3 87.3-18.5 33.6-6 67.3-11 101.2-15 33.7-4 67.5-7.2 101.4-8.7 45-1.9 90-2.5 135-2.2a2364 2364 0 0 1 241.2 15.3c39 4.6 77.6 11.5 116.8 17.5Z" style="fill:#fff"/><path class="st3" d="M839.1 97c3.5-3.2 7.5-4.3 12.3-4.2 14.3.2 28.6 0 43 0 4.4 0 8.3.9 9.7 6.7 3.2-5.9 8-6.8 13.4-6.7 11.2.2 22.3 0 33.5 0 12.3.2 18.6 7 16 19-3 15.2-7.4 30.2-11.1 45.4-1.2 4.8-1.8 9.6-2.8 14.9l-2.1.2h-40.4c9-18.4 12-38.1 17.2-57.2 1.4-5-.3-6.6-5.5-7.1h-.5c-17.6-1.2-18.3-.7-22.8 16.4-2.4 9.1-5 18.2-7.2 27.4-1.6 6.6-2.7 13.3-4 20.2h-42.6c8.8-18 12-37.6 16.9-56.7 1.4-5.6-.3-7.2-6.1-7.4q-18-.6-22.7 16.7c-3 11.3-6 22.5-8.8 33.8-1 4.2-1.2 8.7-1.8 13.6h-42.5A444.4 444.4 0 0 0 801.1 93h37.7l-.4 3.2v2l.7-1.3Z"/><path d="M367 108.2c-4.3.1-7.8 2.4-9 6.8-3.3 11.8-6.5 23.7-9.5 35.5-1 3.8.7 6.3 4.8 6.4 4.5.2 9 .3 13.5.2 7.3-.1 9.8-2 11.8-9 3-10.1 5.7-20.4 8-30.8.6-2.5-1-5.4-2.3-8.5-5.8-.2-11.6-.8-17.4-.6Z" style="fill:none"/><path class="st3" d="M417 94c-2.9-.7-5.9-1-8.9-1-20.4-.2-41-.2-61.4-.1a28 28 0 0 0-27.1 19.6 577 577 0 0 0-10.3 39c-3 13 2.8 20.2 16 20.4 20.9.4 41.9.4 62.8.4 8.2 0 15.6-2.1 21.7-8.5l1-1.4c2.3-4.2 4.8-8 6.1-12.3 3.3-10.6 6-21.4 8.8-32.2.9-3.7 1.4-7.6 1.4-11.3 0-6.2-4.1-11.3-10-12.6Zm-30.4 23.3a561.1 561.1 0 0 1-8 30.9c-2 7-4.5 8.8-11.8 8.9-4.5 0-9 0-13.5-.2-4-.1-5.8-2.6-4.8-6.3 3-12 6.2-23.8 9.5-35.6 1.2-4.4 4.7-6.6 9-6.8 4.3-.1 8.7.2 13.1.4 2.7.2 5 1.9 6 4.4.5 1.6.8 3 .5 4.3ZM690.2 172.3c-4.5-.1-8.5-.1-12.5-.4-10.4-.9-15.5-7.3-13.2-17.4 3.7-16 8.1-31.9 12-47.9 1-4.2 1-8.7 1.6-13.5h41.3l-12 44.5c-1 4-2.2 8-3 12-1.1 5 .7 7.2 5.7 7.5 18.8 1 19.2.8 23.9-17.2 2.9-11.1 5.8-22.2 8.5-33.4 1-4.2 1-8.7 1.6-13.4H785c-.2 1-.2 2.2-.5 3.2-5.3 19.9-10.7 39.8-15.8 59.7-1.3 5.1-1.7 10.4-2.6 16H731v-6.9c-5 7.4-11.7 7.2-18.4 7.2h-22.4Z"/><path d="M117 148.7c-6.8-.2-13.2 0-19.4-.7-6-.6-9.7-4.7-9.6-10.8.3-11 2.7-21.5 8.3-31 5.3-9 14.2-13 24.4-13.1 23.3-.4 46.6-.1 70.5-.1l-1.4 19.8c-6.4-5.2-13.7-4.8-20.8-4.9h-29.4c-1.9 0-4-.3-5.5.5-1.5.7-2.4 2.7-3.5 4.1 1.3.8 2.7 2.3 4 2.4 11 .2 22 0 33 .1 2 0 4 0 6 .4 9.8 1.7 13.7 7.2 11.7 17-1.3 6.7-3 13.4-5.3 19.7-4.4 12.3-13.5 19.5-26.6 19.8-24.8.4-49.6 0-74.9 0l1.7-19.2c18.7 8 38.2 3.2 57.2 4.2 1.5.1 3.6-.5 4.5-1.6 1-1.2 1.5-3.3 1.3-5 0-.6-2.4-1.4-3.7-1.5H117Z" style="fill:#fff"/><path class="st3" d="M611.3 93c.5.5.6.8.5 1.1-1.3 4.5-1.3 10.6-4.3 12.9-2.9 2.3-8.8.8-13.4.9h-18.8c-3.8 14-7.6 28-11 42-1.3 4.7.5 6.9 5.6 7 10 .2 20.2 1.7 30.8-3.8-2.7 6.6-4.9 12-7.4 17.4-.4.9-2.3 1.7-3.5 1.7-16.5 0-33 0-49.5-.4-12-.4-17.7-7.3-15.2-19.2 3-14.7 7.1-29.3 10.9-44.5h-11.8l3.9-15h11.8c1.3-4.8 2.5-9.5 4-14 .4-1.2 2-2.9 3-2.9 12.3-.2 24.6-.1 36.9-.1l-4.3 16.8 31.8.1ZM494 93.7l28.8-.1-6.6 24.8c-10.4-5.3-21-5.1-31.2-1.7-3.3 1.1-6.6 5.7-7.8 9.4-3.8 11.9-6.6 24-9.6 36.1-.7 3-.5 6.3-.7 9.7h-42.8A430.5 430.5 0 0 0 445 93h37l-1.4 8 13.5-7.3ZM653.7 129.6c-3.2 14.3-9.2 27.5-9 42.4H602c9.2-25.4 16.1-51.5 20.8-78.8h40.7l-9.7 36.4ZM662 64.9h9l-5.3 20h-39.2c1.6-6.2 3-12.2 4.7-18 .3-1 2.5-2 3.8-2h27ZM291.2 92.9h-23.5c-8.8 0-18-1.7-25.5 6.4v-6.2H205l.7 4c0 1.8 0 3.1-.3 4.4l-16 62.3c-3 12-6.3 23.9-9.6 36.1H220c2.5-11.4 5-22.3 7.3-33.3 3.5 4.8 7.7 5.7 12.2 5.7h32a25.2 25.2 0 0 0 25.1-18.5c4.5-13.5 8-27.4 11.1-41.3 2.7-12.4-3.6-19.4-16.4-19.6Zm-22.9 21c-3.2 12.3-6.4 24.5-9.8 36.7-1.2 4.3-4.3 6.5-9 6.5h-11c-6-.3-7.6-2.4-6-8.4 2.7-10.6 5.3-21.3 8.6-31.7 1-3 3.8-5.5 5.8-8.2h.4c5.9-.4 11.4-.8 16.8-.7 3.4.1 5.2 2.3 4.2 5.9Z"/></svg>
